<svg xmlns="http://www.w3.org/2000/svg" viewBox="0 0 1365 768" fill="none">
  <defs>
    <linearGradient id="s-fill" x1="440" y1="170" x2="930" y2="630" gradientUnits="userSpaceOnUse">
      <stop offset="0%" stop-color="#8CF6F0" />
      <stop offset="52%" stop-color="#9AD1FF" />
      <stop offset="100%" stop-color="#C998FF" />
    </linearGradient>
    <linearGradient id="s-glass" x1="500" y1="180" x2="862" y2="560" gradientUnits="userSpaceOnUse">
      <stop offset="0%" stop-color="#FFFFFF" stop-opacity="0.42" />
      <stop offset="42%" stop-color="#FFFFFF" stop-opacity="0.16" />
      <stop offset="100%" stop-color="#FFFFFF" stop-opacity="0.04" />
    </linearGradient>
    <radialGradient id="glow-cyan" cx="0" cy="0" r="1" gradientUnits="userSpaceOnUse" gradientTransform="translate(548 388) rotate(90) scale(202)">
      <stop offset="0%" stop-color="#5FFAFF" stop-opacity="0.72" />
      <stop offset="100%" stop-color="#5FFAFF" stop-opacity="0" />
    </radialGradient>
    <radialGradient id="glow-violet" cx="0" cy="0" r="1" gradientUnits="userSpaceOnUse" gradientTransform="translate(786 474) rotate(90) scale(194)">
      <stop offset="0%" stop-color="#C48BFF" stop-opacity="0.66" />
      <stop offset="100%" stop-color="#C48BFF" stop-opacity="0" />
    </radialGradient>
    <filter id="blur-large" x="-20%" y="-20%" width="140%" height="140%">
      <feGaussianBlur stdDeviation="34" />
    </filter>
    <filter id="blur-soft" x="-12%" y="-12%" width="124%" height="124%">
      <feGaussianBlur stdDeviation="10" />
    </filter>
  </defs>

  <rect width="1365" height="768" fill="#666B70" />

  <g filter="url(#blur-large)">
    <path
      d="M558 176C469 176 420 221 420 295C420 366 468 412 550 412H642C691 412 720 436 720 476C720 526 678 560 620 560H458V622H628C735 622 798 570 798 478C798 387 736 342 650 342H554C509 342 486 323 486 289C486 249 514 228 564 228H754V176H558Z"
      fill="url(#glow-cyan)"
    />
    <path
      d="M558 176C469 176 420 221 420 295C420 366 468 412 550 412H642C691 412 720 436 720 476C720 526 678 560 620 560H458V622H628C735 622 798 570 798 478C798 387 736 342 650 342H554C509 342 486 323 486 289C486 249 514 228 564 228H754V176H558Z"
      fill="url(#glow-violet)"
    />
  </g>

  <g filter="url(#blur-soft)">
    <path
      d="M558 176C469 176 420 221 420 295C420 366 468 412 550 412H642C691 412 720 436 720 476C720 526 678 560 620 560H458V622H628C735 622 798 570 798 478C798 387 736 342 650 342H554C509 342 486 323 486 289C486 249 514 228 564 228H754V176H558Z"
      fill="url(#s-fill)"
      fill-opacity="0.24"
    />
  </g>

  <path
    d="M558 176C469 176 420 221 420 295C420 366 468 412 550 412H642C691 412 720 436 720 476C720 526 678 560 620 560H458V622H628C735 622 798 570 798 478C798 387 736 342 650 342H554C509 342 486 323 486 289C486 249 514 228 564 228H754V176H558Z"
    fill="url(#s-fill)"
    fill-opacity="0.78"
  />
  <path
    d="M558 176C469 176 420 221 420 295C420 366 468 412 550 412H642C691 412 720 436 720 476C720 526 678 560 620 560H458V622H628C735 622 798 570 798 478C798 387 736 342 650 342H554C509 342 486 323 486 289C486 249 514 228 564 228H754V176H558Z"
    fill="url(#s-glass)"
  />
  <path
    d="M558 176C469 176 420 221 420 295C420 366 468 412 550 412H642C691 412 720 436 720 476C720 526 678 560 620 560H458V622H628C735 622 798 570 798 478C798 387 736 342 650 342H554C509 342 486 323 486 289C486 249 514 228 564 228H754V176H558Z"
    stroke="rgba(255,255,255,0.42)"
    stroke-width="2"
  />
  <path
    d="M585 190C530 194 491 221 474 258"
    stroke="rgba(255,255,255,0.62)"
    stroke-width="3"
    stroke-linecap="round"
  />
  <path
    d="M675 195C700 195 721 197 740 201"
    stroke="rgba(255,255,255,0.4)"
    stroke-width="2"
    stroke-linecap="round"
  />
</svg>
