<svg xmlns="http://www.w3.org/2000/svg" viewBox="0 0 1200 720" fill="none">
  <rect width="1200" height="720" fill="#091014"/>
  <rect width="1200" height="720" fill="url(#a)" opacity=".22"/>
  <rect x="56" y="54" width="1088" height="612" rx="34" fill="#0d161d" stroke="#223640"/>
  <rect x="96" y="96" width="240" height="42" rx="18" fill="#13222b"/>
  <rect x="366" y="96" width="240" height="42" rx="18" fill="#13222b"/>
  <rect x="636" y="96" width="240" height="42" rx="18" fill="#13222b"/>
  <rect x="96" y="172" width="240" height="438" rx="26" fill="#0f1a21" stroke="#20333e"/>
  <rect x="366" y="172" width="240" height="438" rx="26" fill="#0f1a21" stroke="#20333e"/>
  <rect x="636" y="172" width="240" height="438" rx="26" fill="#0f1a21" stroke="#20333e"/>
  <rect x="126" y="214" width="180" height="88" rx="18" fill="#10313f"/>
  <rect x="126" y="322" width="180" height="126" rx="18" fill="#12232b"/>
  <rect x="126" y="468" width="180" height="72" rx="18" fill="#173d4c"/>
  <rect x="396" y="214" width="180" height="120" rx="18" fill="#173d4c"/>
  <rect x="396" y="354" width="180" height="84" rx="18" fill="#112028"/>
  <rect x="396" y="458" width="180" height="120" rx="18" fill="#102c36"/>
  <rect x="666" y="214" width="180" height="72" rx="18" fill="#173d4c"/>
  <rect x="666" y="306" width="180" height="144" rx="18" fill="#10222c"/>
  <rect x="666" y="470" width="180" height="108" rx="18" fill="#143441"/>
  <text x="98" y="621" fill="#98F7FF" font-family="IBM Plex Mono, monospace" font-size="34" letter-spacing="6">KANBAN NINE / HERO PLACEHOLDER</text>
  <defs>
    <radialGradient id="a" cx="0" cy="0" r="1" gradientTransform="translate(220 80) rotate(29.6) scale(701 453)">
      <stop stop-color="#98F7FF"/>
      <stop offset="1" stop-color="#98F7FF" stop-opacity="0"/>
    </radialGradient>
  </defs>
</svg>
