<svg xmlns="http://www.w3.org/2000/svg" viewBox="0 0 1200 720" fill="none">
  <rect width="1200" height="720" fill="#070A10"/>
  <rect x="102" y="110" width="996" height="500" rx="30" fill="#0B1016" stroke="#24303E"/>
  <rect x="142" y="156" width="282" height="406" rx="24" fill="#101722"/>
  <rect x="458" y="156" width="284" height="194" rx="24" fill="#101722"/>
  <rect x="458" y="368" width="284" height="194" rx="24" fill="#101722"/>
  <rect x="776" y="156" width="282" height="406" rx="24" fill="#101722"/>
  <rect x="176" y="194" width="214" height="24" rx="12" fill="#203141"/>
  <rect x="492" y="196" width="214" height="24" rx="12" fill="#203141"/>
  <rect x="492" y="408" width="214" height="24" rx="12" fill="#203141"/>
  <rect x="810" y="194" width="214" height="24" rx="12" fill="#203141"/>
  <path d="M176 288H390" stroke="#6EF9FF" stroke-width="8" stroke-linecap="round"/>
  <path d="M492 288H706" stroke="#A3B2FF" stroke-width="8" stroke-linecap="round"/>
  <path d="M492 500H706" stroke="#FF75EC" stroke-width="8" stroke-linecap="round"/>
  <path d="M810 288H1024" stroke="#6EF9FF" stroke-width="8" stroke-linecap="round"/>
  <text x="142" y="642" fill="#F4FBFF" font-family="IBM Plex Mono, monospace" font-size="28" letter-spacing="6">PANEL PLACEHOLDER / INTERNAL UI</text>
</svg>
